<svg width="28" height="20" viewBox="0 0 28 20" fill="none" xmlns="http://www.w3.org/2000/svg">
<path d="M27.2391 6.90559C27.0376 6.65245 26.7322 6.50506 26.409 6.50506H7.83814L6.87405 1.6327C6.78956 1.20597 6.45302 0.874023 6.02487 0.795547L1.7825 0.0177841C1.20522 -0.0886374 0.653703 0.293572 0.547992 0.869812C0.442282 1.44605 0.823726 1.99861 1.40002 2.10432L4.9332 2.75198L8.04567 18.4837C8.14395 18.9804 8.57986 19.3385 9.0861 19.3385H23.9344C24.4282 19.3385 24.8564 18.9981 24.9677 18.5162L27.4424 7.80427C27.5152 7.48927 27.4403 7.15836 27.2391 6.90559ZM23.0908 17.2174H9.95716L8.25775 8.6266H25.0751L23.0908 17.2174Z" fill="#0F2438" stroke="white" stroke-width="0.3"/>
</svg>
